<svg xmlns="http://www.w3.org/2000/svg" viewBox="0 0 1000 700"><rect width="1000" height="700" fill="#e9dfcd"/><ellipse cx="500" cy="380" rx="350" ry="205" fill="#f8f2e7"/><ellipse cx="500" cy="380" rx="265" ry="150" fill="#d7a946"/><g fill="none" stroke="#f3d17d" stroke-width="24" stroke-linecap="round"><path d="M285 350c90-100 150 150 240 20s160 120 240-20"/><path d="M260 410c100-90 180 130 260 0s150 120 230-10"/><path d="M310 465c100-70 130 90 220 0s130 60 175-5"/></g><g fill="#9d2e22"><circle cx="350" cy="345" r="24"/><circle cx="610" cy="365" r="27"/><circle cx="540" cy="455" r="23"/></g><g fill="#3d6b3d"><path d="M430 265q45-70 90 0q-50-15-90 0"/><path d="M650 440q45-70 90 0q-50-15-90 0"/></g></svg>